<svg width="136" height="48" viewBox="0 0 136 48" fill="none" xmlns="http://www.w3.org/2000/svg">
<path d="M36.6478 47.0066V22.4007H25.3604V47.0066H18.3094V22.4007H6.99296V47.0066H0V15.3787H6.99296V17.4679L7.92148 16.7425C8.38575 16.3943 8.87903 16.0751 9.43034 15.872C10.1848 15.5528 10.9682 15.3787 11.8387 15.3787H19.0348C19.8763 15.3787 20.6597 15.5528 21.4141 15.872C22.1395 16.1622 22.8069 16.5974 23.3872 17.1487C23.6484 17.4099 23.9095 17.671 24.1417 17.9902L24.6059 18.6285L25.0702 17.9902C25.2733 17.7 25.5345 17.4099 25.7956 17.1487C26.3759 16.5974 27.0433 16.1622 27.7687 15.872C28.5232 15.5528 29.3066 15.3787 30.1771 15.3787H37.3732C38.2437 15.3787 39.0851 15.5528 39.8396 15.901C40.594 16.2202 41.2614 16.6554 41.8127 17.2358C42.393 17.7871 42.8573 18.4545 43.1764 19.2379C43.5246 19.9923 43.6987 20.8338 43.6987 21.7043V47.0066H36.6478Z" fill="#D8D8DF"/>
<path d="M53.5643 47.0066C52.7228 47.0066 51.9104 46.8325 51.1269 46.5133C50.3435 46.1651 49.6761 45.7299 49.1248 45.1786L49.0958 45.1496C48.5445 44.5692 48.1092 43.9019 47.761 43.1474V43.1184C47.4418 42.364 47.2968 41.5225 47.2968 40.681V21.6753C47.2968 20.8048 47.4709 19.9923 47.79 19.2089C48.1382 18.4254 48.5735 17.758 49.1248 17.2067C49.7051 16.6264 50.3725 16.1912 51.1269 15.872C51.8814 15.5238 52.7228 15.3497 53.5643 15.3497H67.9565C68.827 15.3497 69.6684 15.5238 70.4229 15.872C71.1773 16.1912 71.8447 16.6264 72.396 17.2067C72.9763 17.758 73.4406 18.4254 73.7597 19.2089C74.1079 19.9633 74.282 20.8048 74.282 21.6753V34.7617H54.2897V39.9556H74.253L67.231 47.0066H53.5643ZM67.231 27.7397V22.4297H54.2897V27.7397H67.231Z" fill="#D8D8DF"/>
<path d="M84.1767 47.0066C83.3352 47.0066 82.5227 46.8325 81.7393 46.5133H81.7103C80.9558 46.1942 80.2885 45.7299 79.7372 45.1786C79.1568 44.5982 78.6926 43.9309 78.3734 43.1764V43.1474C78.0542 42.393 77.9091 41.5805 77.9091 40.71V6.09344H84.9311V15.3787H98.917L91.895 22.4007H84.9311V39.9556H94.8547V47.0066H84.1767Z" fill="#D8D8DF"/>
<path d="M118.416 47.0066V44.8884L117.488 45.6429C117.023 46.0201 116.501 46.3392 115.921 46.5714C115.195 46.8615 114.412 47.0356 113.599 47.0356H104.749C103.908 47.0356 103.095 46.8615 102.312 46.5424C101.528 46.1942 100.861 45.7589 100.31 45.2076L100.281 45.1786C99.7295 44.6273 99.2942 43.9599 98.946 43.2055V43.1765C98.6268 42.422 98.4818 41.5805 98.4818 40.7391V33.1368C98.4818 32.2663 98.6559 31.4538 98.975 30.6994C99.3232 29.945 99.7585 29.2776 100.31 28.6972C100.89 28.1169 101.557 27.6527 102.341 27.3335C103.095 26.9853 103.937 26.8112 104.778 26.8112H118.416V22.4297H104.952L111.945 15.3787H119.141C120.012 15.3787 120.853 15.5528 121.608 15.901C122.362 16.2202 123.03 16.6554 123.581 17.2358C124.161 17.7871 124.626 18.4545 124.945 19.2379C125.293 19.9923 125.467 20.8338 125.467 21.7043V47.0066H118.416ZM118.416 39.9846V33.8332H105.475V39.9846H118.416Z" fill="#D8D8DF"/>
<path d="M136 0H129.036V47.0066H136V0Z" fill="#D8D8DF"/>
</svg>
