<svg width="136" height="48" viewBox="0 0 136 48" fill="none" xmlns="http://www.w3.org/2000/svg">
<mask id="mask0_395_8194" style="mask-type:alpha" maskUnits="userSpaceOnUse" x="67" y="0" width="61" height="47">
<path d="M114.35 0H127.4L80.4498 46.9502H67.4L114.35 0Z" fill="#D8D8DF"/>
</mask>
<g mask="url(#mask0_395_8194)">
<rect x="60.6824" width="68.5344" height="1.38174" fill="#D8D8DF"/>
<rect x="60.6824" y="22.6538" width="68.5344" height="1.38174" fill="#D8D8DF"/>
<rect x="60.6824" y="11.3268" width="68.5344" height="1.38174" fill="#D8D8DF"/>
<rect x="60.6824" y="33.9806" width="68.5344" height="1.38174" fill="#D8D8DF"/>
<rect x="60.6824" y="5.66333" width="68.5344" height="1.38174" fill="#D8D8DF"/>
<rect x="60.6824" y="28.3171" width="68.5344" height="1.38174" fill="#D8D8DF"/>
<rect x="60.6824" y="16.9902" width="68.5344" height="1.38174" fill="#D8D8DF"/>
<rect x="60.6824" y="39.644" width="68.5344" height="1.38174" fill="#D8D8DF"/>
<rect x="60.6824" y="2.83167" width="68.5344" height="1.38174" fill="#D8D8DF"/>
<rect x="60.6824" y="25.4854" width="68.5344" height="1.38174" fill="#D8D8DF"/>
<rect x="60.6824" y="14.1586" width="68.5344" height="1.38174" fill="#D8D8DF"/>
<rect x="60.6824" y="36.8123" width="68.5344" height="1.38174" fill="#D8D8DF"/>
<rect x="60.6824" y="8.49512" width="68.5344" height="1.38174" fill="#D8D8DF"/>
<rect x="60.6824" y="31.1489" width="68.5344" height="1.38174" fill="#D8D8DF"/>
<rect x="60.6824" y="19.822" width="68.5344" height="1.38174" fill="#D8D8DF"/>
<rect x="60.6824" y="42.4758" width="68.5344" height="1.38174" fill="#D8D8DF"/>
<rect x="60.6824" y="45.2393" width="68.5344" height="1.38174" fill="#D8D8DF"/>
</g>
<path d="M36.6478 47.0066V22.4006H25.3604V47.0066H18.3094V22.4006H6.99296V47.0066H0V15.3787H6.99296V17.4678L7.92148 16.7424C8.38575 16.3942 8.87903 16.0751 9.43034 15.8719C10.1848 15.5528 10.9682 15.3787 11.8387 15.3787H19.0348C19.8763 15.3787 20.6597 15.5528 21.4141 15.8719C22.1395 16.1621 22.8069 16.5974 23.3872 17.1487C23.6484 17.4098 23.9095 17.671 24.1417 17.9901L24.6059 18.6285L25.0702 17.9901C25.2733 17.7 25.5345 17.4098 25.7956 17.1487C26.3759 16.5974 27.0433 16.1621 27.7687 15.8719C28.5232 15.5528 29.3066 15.3787 30.1771 15.3787H37.3732C38.2437 15.3787 39.0851 15.5528 39.8396 15.901C40.594 16.2201 41.2614 16.6554 41.8127 17.2357C42.393 17.787 42.8573 18.4544 43.1764 19.2378C43.5246 19.9923 43.6987 20.8338 43.6987 21.7042V47.0066H36.6478Z" fill="#D8D8DF"/>
<path d="M53.5643 47.0067C52.7228 47.0067 51.9104 46.8326 51.1269 46.5134C50.3435 46.1652 49.6761 45.7299 49.1248 45.1786L49.0958 45.1496C48.5445 44.5693 48.1092 43.9019 47.761 43.1475V43.1185C47.4418 42.364 47.2968 41.5226 47.2968 40.6811V21.6753C47.2968 20.8048 47.4709 19.9924 47.79 19.2089C48.1382 18.4255 48.5735 17.7581 49.1248 17.2068C49.7051 16.6265 50.3725 16.1912 51.1269 15.872C51.8814 15.5238 52.7228 15.3497 53.5643 15.3497H67.9565C68.827 15.3497 69.6684 15.5238 70.4229 15.872C71.1773 16.1912 71.8447 16.6265 72.396 17.2068C72.9763 17.7581 73.4406 18.4255 73.7597 19.2089C74.1079 19.9633 74.282 20.8048 74.282 21.6753V34.7617H54.2897V39.9557H74.253L67.231 47.0067H53.5643ZM67.231 27.7397V22.4297H54.2897V27.7397H67.231Z" fill="#D8D8DF"/>
<path d="M84.1767 47.0066C83.3353 47.0066 82.5228 46.8325 81.7394 46.5133H81.7103C80.9559 46.1941 80.2885 45.7298 79.7372 45.1785C79.1569 44.5982 78.6926 43.9308 78.3734 43.1764V43.1474C78.0543 42.3929 77.9092 41.5805 77.9092 40.71V6.09338H84.9312V15.3786H98.9171L91.8951 22.4006H84.9312V39.9556H94.8548V47.0066H84.1767Z" fill="#D8D8DF"/>
<path d="M118.416 47.0066V44.8884L117.488 45.6428C117.023 46.02 116.501 46.3392 115.921 46.5713C115.195 46.8615 114.412 47.0356 113.599 47.0356H104.749C103.908 47.0356 103.095 46.8615 102.312 46.5423C101.529 46.1941 100.861 45.7589 100.31 45.2076L100.281 45.1785C99.7295 44.6272 99.2943 43.9598 98.9461 43.2054V43.1764C98.6269 42.422 98.4818 41.5805 98.4818 40.739V33.1367C98.4818 32.2662 98.6559 31.4538 98.9751 30.6993C99.3233 29.9449 99.7585 29.2775 100.31 28.6972C100.89 28.1169 101.558 27.6526 102.341 27.3334C103.095 26.9852 103.937 26.8111 104.778 26.8111H118.416V22.4297H104.952L111.945 15.3787H119.142C120.012 15.3787 120.853 15.5528 121.608 15.901C122.362 16.2201 123.03 16.6554 123.581 17.2357C124.161 17.787 124.626 18.4544 124.945 19.2378C125.293 19.9923 125.467 20.8338 125.467 21.7042V47.0066H118.416ZM118.416 39.9846V33.8331H105.475V39.9846H118.416Z" fill="#D8D8DF"/>
<path d="M136 0H129.036V47.0066H136V0Z" fill="#D8D8DF"/>
</svg>
