<svg width="368" height="101" viewBox="0 0 368 101" fill="none" xmlns="http://www.w3.org/2000/svg">
<rect y="41.6651" width="36.056" height="58.3764" fill="#E3E3E7"/>
<path d="M32.0499 91.4565C30.2566 91.4565 28.864 91.0177 27.872 90.1402C26.9181 89.2245 26.3458 87.9654 26.155 86.3629H25.8688C25.3347 88.1943 24.2854 89.6251 22.7211 90.6553C21.1568 91.6473 19.23 92.1433 16.9407 92.1433C13.9646 92.1433 11.5991 91.3611 9.84396 89.7968C8.08886 88.2325 7.2113 86.0577 7.2113 83.2724C7.2113 77.3203 11.58 74.3442 20.3174 74.3442H25.5255V72.3984C25.5255 70.5288 25.0676 69.1171 24.1519 68.1632C23.2362 67.2093 21.7482 66.7324 19.6878 66.7324C17.8183 66.7324 16.3111 67.0949 15.1665 67.8198C14.0219 68.5447 13.0489 69.4795 12.2477 70.6242L8.06978 67.0758C8.98549 65.4352 10.4544 64.0616 12.4766 62.9551C14.537 61.8105 17.1887 61.2382 20.4318 61.2382C24.3236 61.2382 27.3569 62.1539 29.5317 63.9853C31.7446 65.7785 32.8511 68.4684 32.8511 72.055V85.9623H36.3423V91.4565H32.0499ZM19.4017 87.1069C21.1568 87.1069 22.6066 86.7063 23.7513 85.905C24.9341 85.0656 25.5255 83.9401 25.5255 82.5284V78.5794H20.4891C16.4828 78.5794 14.4797 79.8385 14.4797 82.3567V83.5013C14.4797 84.6841 14.9185 85.5807 15.7961 86.1912C16.6736 86.8017 17.8755 87.1069 19.4017 87.1069Z" fill="#222328"/>
<path d="M42.8667 49.1049H50.1924V67.1329H50.593C51.3942 65.3397 52.4816 63.9089 53.8552 62.8405C55.2669 61.7722 57.1174 61.2381 59.4067 61.2381C61.0855 61.2381 62.6116 61.5624 63.9852 62.211C65.3969 62.8215 66.5988 63.7753 67.5908 65.0726C68.5828 66.3317 69.3459 67.9342 69.8801 69.88C70.4142 71.8259 70.6813 74.0961 70.6813 76.6906C70.6813 79.2851 70.4142 81.5553 69.8801 83.5012C69.3459 85.4471 68.5828 87.0686 67.5908 88.3659C66.5988 89.625 65.3969 90.5789 63.9852 91.2275C62.6116 91.838 61.0855 92.1432 59.4067 92.1432C57.1174 92.1432 55.2669 91.609 53.8552 90.5407C52.4816 89.4724 51.3942 88.0416 50.593 86.2483H50.1924V91.4564H42.8667V49.1049ZM56.3162 86.3056C58.4528 86.3056 60.0934 85.6569 61.2381 84.3597C62.4209 83.0624 63.0123 81.2882 63.0123 79.0371V74.3441C63.0123 72.093 62.4209 70.3188 61.2381 69.0216C60.0934 67.7243 58.4528 67.0757 56.3162 67.0757C54.6374 67.0757 53.1875 67.4954 51.9665 68.3348C50.7838 69.136 50.1924 70.3761 50.1924 72.0549V81.3264C50.1924 83.0052 50.7838 84.2643 51.9665 85.1037C53.1875 85.9049 54.6374 86.3056 56.3162 86.3056Z" fill="#E3E3E7"/>
<path d="M89.1672 92.1433C85.924 92.1433 83.1197 91.6473 80.7541 90.6553C78.3885 89.6251 76.538 88.2515 75.2026 86.5346L79.495 82.6428C80.716 83.9782 82.1086 85.0084 83.6729 85.7333C85.2754 86.4583 87.1259 86.8207 89.2244 86.8207C91.0558 86.8207 92.5248 86.5155 93.6313 85.905C94.7377 85.2946 95.291 84.3598 95.291 83.1007C95.291 82.0324 94.9094 81.3074 94.1463 80.9259C93.4214 80.5443 92.4485 80.2582 91.2275 80.0674L86.4773 79.3234C85.2563 79.1326 84.0545 78.8655 82.8717 78.5221C81.7271 78.1406 80.6969 77.6255 79.7812 76.9769C78.9036 76.3283 78.1978 75.5079 77.6636 74.5159C77.1294 73.4858 76.8624 72.2457 76.8624 70.7959C76.8624 67.7053 78.007 65.3398 80.2963 63.6991C82.6237 62.0585 85.8096 61.2382 89.854 61.2382C92.7155 61.2382 95.1384 61.6388 97.1224 62.44C99.1446 63.2413 100.804 64.3668 102.102 65.8167L98.267 70.0519C97.4276 69.1361 96.3021 68.3349 94.8904 67.6481C93.5168 66.9232 91.7617 66.5607 89.625 66.5607C85.8859 66.5607 84.0163 67.7244 84.0163 70.0519C84.0163 71.1202 84.3979 71.8642 85.161 72.2839C85.924 72.6654 86.9161 72.9516 88.137 73.1424L92.83 73.8864C94.0891 74.0771 95.291 74.3633 96.4356 74.7449C97.6184 75.0882 98.6486 75.5843 99.5261 76.2329C100.442 76.8815 101.167 77.7018 101.701 78.6938C102.235 79.6859 102.502 80.9068 102.502 82.3567C102.502 85.409 101.319 87.8128 98.9538 89.5679C96.6264 91.2848 93.3642 92.1433 89.1672 92.1433Z" fill="#E3E3E7"/>
<path d="M124.479 91.4565C121.656 91.4565 119.576 90.7125 118.241 89.2245C116.905 87.7365 116.238 85.8097 116.238 83.4441V67.7054H107.653V61.9249H113.491C114.673 61.9249 115.513 61.696 116.009 61.2382C116.505 60.7422 116.753 59.8837 116.753 58.6627V51.5088H123.563V61.9249H135.582V67.7054H123.563V85.6761H135.582V91.4565H124.479Z" fill="#E3E3E7"/>
<path d="M142.793 85.6762H150.119V67.7055H142.793V61.9251H157.445V69.9947H157.902C158.169 68.9646 158.532 67.9725 158.99 67.0187C159.486 66.0267 160.096 65.1682 160.821 64.4433C161.584 63.6802 162.5 63.0697 163.568 62.6118C164.637 62.154 165.915 61.9251 167.403 61.9251H170.608V68.7929H164.541C162.328 68.7929 160.592 69.4415 159.333 70.7387C158.074 72.036 157.445 73.6957 157.445 75.7179V85.6762H167.689V91.4566H142.793V85.6762Z" fill="#E3E3E7"/>
<path d="M199.739 91.4565C197.946 91.4565 196.553 91.0177 195.561 90.1402C194.607 89.2245 194.035 87.9654 193.844 86.3629H193.558C193.024 88.1943 191.974 89.6251 190.41 90.6553C188.846 91.6473 186.919 92.1433 184.63 92.1433C181.654 92.1433 179.288 91.3611 177.533 89.7968C175.778 88.2325 174.9 86.0577 174.9 83.2724C174.9 77.3203 179.269 74.3442 188.006 74.3442H193.214V72.3984C193.214 70.5288 192.757 69.1171 191.841 68.1632C190.925 67.2093 189.437 66.7324 187.377 66.7324C185.507 66.7324 184 67.0949 182.855 67.8198C181.711 68.5447 180.738 69.4795 179.937 70.6242L175.759 67.0758C176.674 65.4352 178.143 64.0616 180.166 62.9551C182.226 61.8105 184.878 61.2382 188.121 61.2382C192.013 61.2382 195.046 62.1539 197.221 63.9853C199.434 65.7785 200.54 68.4684 200.54 72.055V85.9623H204.031V91.4565H199.739ZM187.091 87.1069C188.846 87.1069 190.296 86.7063 191.44 85.905C192.623 85.0656 193.214 83.9401 193.214 82.5284V78.5794H188.178C184.172 78.5794 182.169 79.8385 182.169 82.3567V83.5013C182.169 84.6841 182.607 85.5807 183.485 86.1912C184.363 86.8017 185.564 87.1069 187.091 87.1069Z" fill="#E3E3E7"/>
<path d="M223.204 92.1433C220.953 92.1433 218.931 91.7808 217.137 91.0559C215.344 90.331 213.818 89.3008 212.559 87.9654C211.338 86.63 210.384 85.0084 209.697 83.1007C209.049 81.193 208.724 79.0563 208.724 76.6907C208.724 74.3252 209.049 72.1885 209.697 70.2808C210.384 68.3731 211.338 66.7515 212.559 65.4161C213.818 64.0807 215.325 63.0505 217.08 62.3256C218.873 61.6006 220.896 61.2382 223.147 61.2382C226.275 61.2382 228.794 61.8868 230.701 63.184C232.609 64.4813 234.059 66.1982 235.051 68.3349L229.385 71.4254C228.851 70.1663 228.088 69.1552 227.096 68.3921C226.142 67.5909 224.825 67.1903 223.147 67.1903C220.972 67.1903 219.293 67.8198 218.11 69.0789C216.966 70.338 216.393 72.055 216.393 74.2298V79.1517C216.393 81.2883 216.966 83.0053 218.11 84.3026C219.293 85.5616 221.01 86.1912 223.261 86.1912C225.016 86.1912 226.409 85.7906 227.439 84.9893C228.507 84.1881 229.366 83.1198 230.014 81.7844L235.509 85.0466C234.517 87.1451 233.01 88.862 230.987 90.1974C229.003 91.4947 226.409 92.1433 223.204 92.1433Z" fill="#E3E3E7"/>
<path d="M257.257 91.4565C254.433 91.4565 252.354 90.7125 251.018 89.2245C249.683 87.7365 249.015 85.8097 249.015 83.4441V67.7054H240.431V61.9249H246.268C247.451 61.9249 248.29 61.696 248.786 61.2382C249.282 60.7422 249.53 59.8837 249.53 58.6627V51.5088H256.341V61.9249H268.36V67.7054H256.341V85.6761H268.36V91.4565H257.257Z" fill="#E3E3E7"/>
<path d="M290.279 57.3463C288.562 57.3463 287.342 56.9838 286.617 56.2589C285.93 55.534 285.586 54.6564 285.586 53.6262V52.2527C285.586 51.2225 285.93 50.345 286.617 49.62C287.342 48.8951 288.562 48.5326 290.279 48.5326C291.996 48.5326 293.198 48.8951 293.885 49.62C294.61 50.345 294.972 51.2225 294.972 52.2527V53.6262C294.972 54.6564 294.61 55.534 293.885 56.2589C293.198 56.9838 291.996 57.3463 290.279 57.3463ZM276.887 85.676H286.617V67.7052H276.887V61.9248H293.942V85.676H302.985V91.4564H276.887V85.676Z" fill="#E3E3E7"/>
<path d="M321.642 92.1433C319.391 92.1433 317.369 91.7808 315.576 91.0559C313.821 90.331 312.314 89.3008 311.055 87.9654C309.834 86.63 308.88 85.0084 308.193 83.1007C307.544 81.193 307.22 79.0563 307.22 76.6907C307.22 74.3252 307.544 72.1885 308.193 70.2808C308.88 68.3731 309.834 66.7515 311.055 65.4161C312.314 64.0807 313.821 63.0505 315.576 62.3256C317.369 61.6006 319.391 61.2382 321.642 61.2382C323.855 61.2382 325.858 61.6006 327.652 62.3256C329.445 63.0505 330.952 64.0807 332.173 65.4161C333.432 66.7515 334.386 68.3731 335.035 70.2808C335.721 72.1885 336.065 74.3252 336.065 76.6907C336.065 79.0563 335.721 81.193 335.035 83.1007C334.386 85.0084 333.432 86.63 332.173 87.9654C330.952 89.3008 329.445 90.331 327.652 91.0559C325.858 91.7808 323.855 92.1433 321.642 92.1433ZM321.642 86.5346C323.741 86.5346 325.401 85.905 326.622 84.6459C327.843 83.3487 328.453 81.46 328.453 78.98V74.4015C328.453 71.9214 327.843 70.0519 326.622 68.7928C325.401 67.4955 323.741 66.8469 321.642 66.8469C319.544 66.8469 317.884 67.4955 316.663 68.7928C315.442 70.0519 314.832 71.9214 314.832 74.4015V78.98C314.832 81.46 315.442 83.3487 316.663 84.6459C317.884 85.905 319.544 86.5346 321.642 86.5346Z" fill="#E3E3E7"/>
<path d="M341.96 91.4565V61.9249H349.285V67.133H349.571C350.22 65.5305 351.212 64.157 352.547 63.0123C353.921 61.8296 355.81 61.2382 358.213 61.2382C361.113 61.2382 363.46 62.2111 365.253 64.157C367.084 66.0647 368 68.8118 368 72.3984V91.4565H360.674V73.4285C360.674 69.1552 358.824 67.0186 355.123 67.0186C354.36 67.0186 353.635 67.114 352.948 67.3047C352.261 67.4955 351.632 67.8007 351.059 68.2204C350.525 68.602 350.087 69.0789 349.743 69.6512C349.438 70.2235 349.285 70.9103 349.285 71.7116V91.4565H341.96Z" fill="#E3E3E7"/>
<path d="M21.1757 30.9051C18.9246 30.9051 16.9024 30.5427 15.1091 29.8177C13.354 29.0928 11.8469 28.0626 10.5878 26.7272C9.36688 25.3918 8.41302 23.7702 7.72624 21.8625C7.07761 19.9548 6.7533 17.8181 6.7533 15.4526C6.7533 13.087 7.07761 10.9503 7.72624 9.04261C8.41302 7.13489 9.36688 5.51332 10.5878 4.17792C11.8469 2.84251 13.354 1.81234 15.1091 1.0874C16.9024 0.362466 18.9246 0 21.1757 0C23.3887 0 25.3918 0.362466 27.185 1.0874C28.9783 1.81234 30.4854 2.84251 31.7063 4.17792C32.9654 5.51332 33.9193 7.13489 34.5679 9.04261C35.2547 10.9503 35.5981 13.087 35.5981 15.4526C35.5981 17.8181 35.2547 19.9548 34.5679 21.8625C33.9193 23.7702 32.9654 25.3918 31.7063 26.7272C30.4854 28.0626 28.9783 29.0928 27.185 29.8177C25.3918 30.5427 23.3887 30.9051 21.1757 30.9051ZM21.1757 25.2964C23.2742 25.2964 24.9339 24.6669 26.1549 23.4078C27.3758 22.1105 27.9863 20.2219 27.9863 17.7418V13.1633C27.9863 10.6833 27.3758 8.81368 26.1549 7.55459C24.9339 6.25733 23.2742 5.60871 21.1757 5.60871C19.0772 5.60871 17.4175 6.25733 16.1965 7.55459C14.9756 8.81368 14.3651 10.6833 14.3651 13.1633V17.7418C14.3651 20.2219 14.9756 22.1105 16.1965 23.4078C17.4175 24.6669 19.0772 25.2964 21.1757 25.2964Z" fill="#E3E3E7"/>
<path d="M49.9632 30.2185L39.3754 0.686893H47.0444L50.9934 13.2206L54.3128 24.0947H54.7135L58.0329 13.2206L61.9819 0.686893H69.3648L58.7769 30.2185H49.9632Z" fill="#E3E3E7"/>
<path d="M88.2513 30.9051C85.8857 30.9051 83.7872 30.5427 81.9558 29.8177C80.1244 29.0928 78.5791 28.0626 77.32 26.7272C76.0991 25.3918 75.1643 23.7893 74.5157 21.9198C73.867 20.012 73.5427 17.8754 73.5427 15.5098C73.5427 13.1061 73.867 10.9503 74.5157 9.04261C75.2024 7.13489 76.1563 5.51332 77.3773 4.17792C78.5982 2.84251 80.0671 1.81234 81.7841 1.0874C83.5392 0.362466 85.5042 0 87.679 0C89.8156 0 91.7424 0.362466 93.4594 1.0874C95.1763 1.77418 96.6262 2.7662 97.809 4.06345C99.0299 5.3607 99.9647 6.92504 100.613 8.75645C101.262 10.5879 101.586 12.6101 101.586 14.823V17.2267H80.8684V17.9708C80.8684 20.1074 81.5361 21.8434 82.8715 23.1788C84.2069 24.4761 86.0765 25.1247 88.4802 25.1247C90.3116 25.1247 91.876 24.7623 93.1732 24.0373C94.5086 23.2742 95.6151 22.2822 96.4926 21.0613L100.671 25.2392C99.6022 26.8035 98.0379 28.1389 95.9776 29.2454C93.9554 30.3519 91.3799 30.9051 88.2513 30.9051ZM87.7362 5.37978C85.6759 5.37978 84.0161 6.02841 82.757 7.32566C81.4979 8.62291 80.8684 10.3399 80.8684 12.4765V12.8771H94.2606V12.3621C94.2606 10.2254 93.6692 8.52752 92.4864 7.26843C91.3418 6.00933 89.7584 5.37978 87.7362 5.37978Z" fill="#E3E3E7"/>
<path d="M107.882 24.4381H115.207V6.4673H107.882V0.686893H122.533V8.75657H122.991C123.258 7.7264 123.62 6.73438 124.078 5.78052C124.574 4.7885 125.185 3.93002 125.91 3.20509C126.673 2.442 127.589 1.83153 128.657 1.37367C129.725 0.91582 131.003 0.686893 132.491 0.686893H135.696V7.5547H129.63C127.417 7.5547 125.681 8.20332 124.422 9.50058C123.163 10.7978 122.533 12.4576 122.533 14.4797V24.4381H132.778V30.2185H107.882V24.4381Z" fill="#E3E3E7"/>
</svg>
