<svg width="248" height="66" viewBox="0 0 248 66" fill="none" xmlns="http://www.w3.org/2000/svg">
<path d="M58.9217 64.2382V23.0314H64.6188V27.8896H65.1066C65.4448 27.2652 65.9326 26.5433 66.5699 25.7239C67.2073 24.9044 68.0918 24.189 69.2234 23.5777C70.355 22.9533 71.8508 22.6412 73.7109 22.6412C76.1302 22.6412 78.2894 23.2525 80.1885 24.4752C82.0875 25.6979 83.5768 27.4603 84.6564 29.7626C85.749 32.0649 86.2953 34.8354 86.2953 38.0742C86.2953 41.313 85.7556 44.0901 84.676 46.4053C83.5964 48.7076 82.1135 50.4831 80.2275 51.7318C78.3414 52.9675 76.1887 53.5853 73.7694 53.5853C71.9484 53.5853 70.4591 53.2797 69.3014 52.6683C68.1568 52.057 67.2593 51.3416 66.6089 50.5221C65.9586 49.7027 65.4578 48.9743 65.1066 48.3369H64.7554V64.2382H58.9217ZM64.6383 38.0157C64.6383 40.1229 64.944 41.9699 65.5554 43.5568C66.1667 45.1436 67.0512 46.3858 68.2088 47.2833C69.3665 48.1678 70.7843 48.6101 72.4622 48.6101C74.2051 48.6101 75.662 48.1483 76.8326 47.2248C78.0033 46.2883 78.8877 45.0201 79.4861 43.4202C80.0974 41.8203 80.4031 40.0188 80.4031 38.0157C80.4031 36.0386 80.1039 34.2631 79.5056 32.6892C78.9203 31.1154 78.0358 29.8732 76.8521 28.9627C75.6815 28.0522 74.2182 27.5969 72.4622 27.5969C70.7712 27.5969 69.3404 28.0327 68.1698 28.9041C67.0122 29.7756 66.1342 30.9918 65.5358 32.5527C64.9375 34.1135 64.6383 35.9345 64.6383 38.0157ZM102.708 53.6048C99.8983 53.6048 97.4464 52.961 95.3523 51.6733C93.2581 50.3856 91.6322 48.5841 90.4746 46.2688C89.3169 43.9535 88.7381 41.248 88.7381 38.1523C88.7381 35.0435 89.3169 32.325 90.4746 29.9967C91.6322 27.6685 93.2581 25.8605 95.3523 24.5727C97.4464 23.285 99.8983 22.6412 102.708 22.6412C105.517 22.6412 107.969 23.285 110.063 24.5727C112.158 25.8605 113.783 27.6685 114.941 29.9967C116.099 32.325 116.678 35.0435 116.678 38.1523C116.678 41.248 116.099 43.9535 114.941 46.2688C113.783 48.5841 112.158 50.3856 110.063 51.6733C107.969 52.961 105.517 53.6048 102.708 53.6048ZM102.727 48.7076C104.548 48.7076 106.057 48.2264 107.254 47.2638C108.451 46.3013 109.335 45.0201 109.907 43.4202C110.493 41.8203 110.785 40.0578 110.785 38.1328C110.785 36.2207 110.493 34.4647 109.907 32.8648C109.335 31.2519 108.451 29.9577 107.254 28.9822C106.057 28.0066 104.548 27.5189 102.727 27.5189C100.893 27.5189 99.3715 28.0066 98.1618 28.9822C96.9652 29.9577 96.0742 31.2519 95.4888 32.8648C94.9165 34.4647 94.6304 36.2207 94.6304 38.1328C94.6304 40.0578 94.9165 41.8203 95.4888 43.4202C96.0742 45.0201 96.9652 46.3013 98.1618 47.2638C99.3715 48.2264 100.893 48.7076 102.727 48.7076ZM131.661 53.5853C129.242 53.5853 127.082 52.9675 125.183 51.7318C123.297 50.4831 121.814 48.7076 120.735 46.4053C119.668 44.0901 119.135 41.313 119.135 38.0742C119.135 34.8354 119.675 32.0649 120.754 29.7626C121.847 27.4603 123.343 25.6979 125.242 24.4752C127.141 23.2525 129.294 22.6412 131.7 22.6412C133.56 22.6412 135.056 22.9533 136.187 23.5777C137.332 24.189 138.217 24.9044 138.841 25.7239C139.478 26.5433 139.973 27.2652 140.324 27.8896H140.675V13.0418H146.509V53H140.811V48.3369H140.324C139.973 48.9743 139.465 49.7027 138.802 50.5221C138.152 51.3416 137.254 52.057 136.109 52.6683C134.965 53.2797 133.482 53.5853 131.661 53.5853ZM132.949 48.6101C134.627 48.6101 136.044 48.1678 137.202 47.2833C138.373 46.3858 139.257 45.1436 139.855 43.5568C140.467 41.9699 140.772 40.1229 140.772 38.0157C140.772 35.9345 140.473 34.1135 139.875 32.5527C139.277 30.9918 138.399 29.7756 137.241 28.9041C136.083 28.0327 134.653 27.5969 132.949 27.5969C131.193 27.5969 129.729 28.0522 128.559 28.9627C127.388 29.8732 126.504 31.1154 125.905 32.6892C125.32 34.2631 125.027 36.0386 125.027 38.0157C125.027 40.0188 125.326 41.8203 125.925 43.4202C126.523 45.0201 127.408 46.2883 128.578 47.2248C129.762 48.1483 131.219 48.6101 132.949 48.6101ZM155.931 53.3707C154.865 53.3707 153.948 52.9935 153.18 52.2391C152.413 51.4717 152.029 50.5481 152.029 49.4685C152.029 48.402 152.413 47.4914 153.18 46.737C153.948 45.9696 154.865 45.5859 155.931 45.5859C156.998 45.5859 157.915 45.9696 158.682 46.737C159.45 47.4914 159.834 48.402 159.834 49.4685C159.834 50.1839 159.651 50.8408 159.287 51.4391C158.936 52.0245 158.468 52.4927 157.882 52.8439C157.297 53.1951 156.647 53.3707 155.931 53.3707ZM169.505 23.0314L176.119 34.6989L182.792 23.0314H189.172L179.826 38.0157L189.25 53H182.87L176.119 41.8008L169.388 53H162.988L172.315 38.0157L163.106 23.0314H169.505ZM196.102 64.2382C195.231 64.2382 194.437 64.1667 193.722 64.0236C193.006 63.8935 192.473 63.7505 192.122 63.5944L193.527 58.8142C194.593 59.1004 195.543 59.224 196.375 59.1849C197.208 59.1459 197.943 58.8337 198.58 58.2484C199.23 57.6631 199.803 56.7071 200.297 55.3803L201.019 53.3902L190.054 23.0314H196.297L203.887 46.2883H204.199L211.789 23.0314H218.052L205.702 56.9997C205.129 58.5606 204.401 59.8808 203.516 60.9604C202.632 62.053 201.578 62.8725 200.356 63.4188C199.133 63.9651 197.715 64.2382 196.102 64.2382ZM220.163 53V49.0003L236.396 28.3773V28.1042H220.69V23.0314H243.673V27.2847L228.065 47.654V47.9272H244.22V53H220.163Z" fill="#E2E2E7"/>
<circle cx="12.1159" cy="12.1159" r="11.6159" transform="matrix(-1 0 0 1 28.4203 27.2029)" fill="#3F4452" stroke="#3F4452"/>
<circle cx="5.10145" cy="5.10145" r="4.60145" transform="matrix(-1 0 0 1 42.8115 34.2178)" fill="#3F4452" stroke="#3F4452"/>
<circle cx="5.10145" cy="5.10145" r="4.60145" transform="matrix(-1 0 0 1 10.2029 16)" fill="#3F4452" stroke="#3F4452"/>
<circle cx="5.10145" cy="5.10145" r="4.60145" transform="matrix(-1 0 0 1 10.2029 51.7969)" fill="#3F4452" stroke="#3F4452"/>
</svg>
