<svg width="247" height="66" viewBox="0 0 247 66" fill="none" xmlns="http://www.w3.org/2000/svg">
<path d="M57.9217 64.2382V23.0314H63.6188V27.8896H64.1066C64.4448 27.2652 64.9326 26.5433 65.5699 25.7239C66.2073 24.9044 67.0918 24.189 68.2234 23.5777C69.355 22.9533 70.8508 22.6412 72.7109 22.6412C75.1302 22.6412 77.2894 23.2525 79.1885 24.4752C81.0875 25.6979 82.5768 27.4603 83.6564 29.7626C84.749 32.0649 85.2953 34.8354 85.2953 38.0742C85.2953 41.313 84.7556 44.0901 83.676 46.4053C82.5964 48.7076 81.1135 50.4831 79.2275 51.7318C77.3414 52.9675 75.1887 53.5853 72.7694 53.5853C70.9484 53.5853 69.4591 53.2797 68.3014 52.6683C67.1568 52.057 66.2593 51.3416 65.6089 50.5221C64.9586 49.7027 64.4578 48.9743 64.1066 48.3369H63.7554V64.2382H57.9217ZM63.6383 38.0157C63.6383 40.1229 63.944 41.9699 64.5554 43.5568C65.1667 45.1436 66.0512 46.3858 67.2088 47.2833C68.3665 48.1678 69.7843 48.6101 71.4622 48.6101C73.2051 48.6101 74.662 48.1483 75.8326 47.2248C77.0033 46.2883 77.8877 45.0201 78.4861 43.4202C79.0974 41.8203 79.4031 40.0188 79.4031 38.0157C79.4031 36.0386 79.1039 34.2631 78.5056 32.6892C77.9203 31.1154 77.0358 29.8732 75.8521 28.9627C74.6815 28.0522 73.2182 27.5969 71.4622 27.5969C69.7712 27.5969 68.3404 28.0327 67.1698 28.9041C66.0122 29.7756 65.1342 30.9918 64.5358 32.5527C63.9375 34.1135 63.6383 35.9345 63.6383 38.0157ZM101.708 53.6048C98.8983 53.6048 96.4464 52.961 94.3523 51.6733C92.2581 50.3856 90.6322 48.5841 89.4746 46.2688C88.3169 43.9535 87.7381 41.248 87.7381 38.1523C87.7381 35.0435 88.3169 32.325 89.4746 29.9967C90.6322 27.6685 92.2581 25.8605 94.3523 24.5727C96.4464 23.285 98.8983 22.6412 101.708 22.6412C104.517 22.6412 106.969 23.285 109.063 24.5727C111.158 25.8605 112.783 27.6685 113.941 29.9967C115.099 32.325 115.678 35.0435 115.678 38.1523C115.678 41.248 115.099 43.9535 113.941 46.2688C112.783 48.5841 111.158 50.3856 109.063 51.6733C106.969 52.961 104.517 53.6048 101.708 53.6048ZM101.727 48.7076C103.548 48.7076 105.057 48.2264 106.254 47.2638C107.451 46.3013 108.335 45.0201 108.907 43.4202C109.493 41.8203 109.785 40.0578 109.785 38.1328C109.785 36.2207 109.493 34.4647 108.907 32.8648C108.335 31.2519 107.451 29.9577 106.254 28.9822C105.057 28.0066 103.548 27.5189 101.727 27.5189C99.8933 27.5189 98.3715 28.0066 97.1618 28.9822C95.9652 29.9577 95.0742 31.2519 94.4888 32.8648C93.9165 34.4647 93.6304 36.2207 93.6304 38.1328C93.6304 40.0578 93.9165 41.8203 94.4888 43.4202C95.0742 45.0201 95.9652 46.3013 97.1618 47.2638C98.3715 48.2264 99.8933 48.7076 101.727 48.7076ZM130.661 53.5853C128.242 53.5853 126.082 52.9675 124.183 51.7318C122.297 50.4831 120.814 48.7076 119.735 46.4053C118.668 44.0901 118.135 41.313 118.135 38.0742C118.135 34.8354 118.675 32.0649 119.754 29.7626C120.847 27.4603 122.343 25.6979 124.242 24.4752C126.141 23.2525 128.294 22.6412 130.7 22.6412C132.56 22.6412 134.056 22.9533 135.187 23.5777C136.332 24.189 137.217 24.9044 137.841 25.7239C138.478 26.5433 138.973 27.2652 139.324 27.8896H139.675V13.0418H145.509V53H139.811V48.3369H139.324C138.973 48.9743 138.465 49.7027 137.802 50.5221C137.152 51.3416 136.254 52.057 135.109 52.6683C133.965 53.2797 132.482 53.5853 130.661 53.5853ZM131.949 48.6101C133.627 48.6101 135.044 48.1678 136.202 47.2833C137.373 46.3858 138.257 45.1436 138.855 43.5568C139.467 41.9699 139.772 40.1229 139.772 38.0157C139.772 35.9345 139.473 34.1135 138.875 32.5527C138.277 30.9918 137.399 29.7756 136.241 28.9041C135.083 28.0327 133.653 27.5969 131.949 27.5969C130.193 27.5969 128.729 28.0522 127.559 28.9627C126.388 29.8732 125.504 31.1154 124.905 32.6892C124.32 34.2631 124.027 36.0386 124.027 38.0157C124.027 40.0188 124.326 41.8203 124.925 43.4202C125.523 45.0201 126.408 46.2883 127.578 47.2248C128.762 48.1483 130.219 48.6101 131.949 48.6101ZM154.931 53.3707C153.865 53.3707 152.948 52.9935 152.18 52.2391C151.413 51.4717 151.029 50.5481 151.029 49.4685C151.029 48.402 151.413 47.4914 152.18 46.737C152.948 45.9696 153.865 45.5859 154.931 45.5859C155.998 45.5859 156.915 45.9696 157.682 46.737C158.45 47.4914 158.834 48.402 158.834 49.4685C158.834 50.1839 158.651 50.8408 158.287 51.4391C157.936 52.0245 157.468 52.4927 156.882 52.8439C156.297 53.1951 155.647 53.3707 154.931 53.3707ZM168.505 23.0314L175.119 34.6989L181.792 23.0314H188.172L178.826 38.0157L188.25 53H181.87L175.119 41.8008L168.388 53H161.988L171.315 38.0157L162.106 23.0314H168.505ZM195.102 64.2382C194.231 64.2382 193.437 64.1667 192.722 64.0236C192.006 63.8935 191.473 63.7505 191.122 63.5944L192.527 58.8142C193.593 59.1004 194.543 59.224 195.375 59.1849C196.208 59.1459 196.943 58.8337 197.58 58.2484C198.23 57.6631 198.803 56.7071 199.297 55.3803L200.019 53.3902L189.054 23.0314H195.297L202.887 46.2883H203.199L210.789 23.0314H217.052L204.702 56.9997C204.129 58.5606 203.401 59.8808 202.516 60.9604C201.632 62.053 200.578 62.8725 199.356 63.4188C198.133 63.9651 196.715 64.2382 195.102 64.2382ZM219.163 53V49.0003L235.396 28.3773V28.1042H219.69V23.0314H242.673V27.2847L227.065 47.654V47.9272H243.22V53H219.163Z" fill="#E2E2E7"/>
<circle cx="12.1159" cy="12.1159" r="11.6159" transform="matrix(-1 0 0 1 28.4203 27.2029)" fill="#3F4452" stroke="#3F4452"/>
<circle cx="5.10145" cy="5.10145" r="4.60145" transform="matrix(-1 0 0 1 42.8115 34.2178)" fill="#3F4452" stroke="#3F4452"/>
<circle cx="5.10145" cy="5.10145" r="4.60145" transform="matrix(-1 0 0 1 10.2029 16)" fill="#3F4452" stroke="#3F4452"/>
<circle cx="5.10145" cy="5.10145" r="4.60145" transform="matrix(-1 0 0 1 10.2029 51.7969)" fill="#3F4452" stroke="#3F4452"/>
</svg>
